<?xml version="1.0" standalone="no"?><!DOCTYPE svg PUBLIC "-//W3C//DTD SVG 1.1//EN" "http://www.w3.org/Graphics/SVG/1.1/DTD/svg11.dtd"><svg t="1660549656466" class="icon" viewBox="0 0 1024 1024" version="1.1" xmlns="http://www.w3.org/2000/svg" p-id="3207" xmlns:xlink="http://www.w3.org/1999/xlink" width="24" height="24"><defs><style type="text/css">@font-face { font-family: feedback-iconfont; src: url("//at.alicdn.com/t/font_1031158_u69w8yhxdu.woff2?t=1630033759944") format("woff2"), url("//at.alicdn.com/t/font_1031158_u69w8yhxdu.woff?t=1630033759944") format("woff"), url("//at.alicdn.com/t/font_1031158_u69w8yhxdu.ttf?t=1630033759944") format("truetype"); }
</style></defs><path d="M773.12 564.48c-20.48 0-192 55.04-192 55.04v158.72s2.56 71.68 39.68 116.48c69.12 83.2 152.32 101.12 152.32 101.12s98.56-29.44 152.32-101.12c34.56-46.08 39.68-116.48 39.68-116.48V620.8c-1.28 0-171.52-56.32-192-56.32z m154.88 215.04s-3.84 57.6-32 94.72c-43.52 57.6-122.88 81.92-122.88 81.92s-67.84-14.08-124.16-81.92c-29.44-35.84-32-94.72-32-94.72V650.24s139.52-44.8 156.16-44.8c16.64 0 154.88 44.8 154.88 44.8v129.28z" p-id="3208" fill="#ffffff"></path><path d="M829.44 748.8c5.12 8.96 7.68 19.2 7.68 29.44 0 35.84-29.44 64-64 64s-64-29.44-64-64 29.44-64 64-64c14.08 0 26.88 3.84 37.12 12.8L832 691.2c-17.92-12.8-39.68-19.2-61.44-19.2-58.88 0-107.52 47.36-107.52 107.52s47.36 107.52 107.52 107.52 107.52-47.36 107.52-107.52c0-16.64-3.84-32-10.24-46.08l-38.4 15.36z" p-id="3209" fill="#ffffff"></path><path d="M869.12 648.96l-64 103.68 107.52-47.36-33.28-17.92-10.24-38.4z" p-id="3210" fill="#ffffff"></path><path d="M503.04 866.56c-5.12 0-8.96 1.28-12.8 1.28V669.44h14.08c12.8 0 24.32-10.24 24.32-23.04s-10.24-21.76-21.76-23.04h-16.64v-121.6h171.52v14.08c0 12.8 10.24 24.32 23.04 24.32 11.52 0 21.76-8.96 23.04-21.76v-17.92h151.04c0 5.12-1.28 10.24-1.28 15.36-1.28 6.4 1.28 12.8 5.12 17.92 3.84 5.12 10.24 7.68 16.64 7.68 11.52 0 21.76-8.96 23.04-20.48 1.28-14.08 2.56-28.16 2.56-42.24 1.28-58.88-10.24-116.48-34.56-170.24-23.04-52.48-53.76-99.84-94.72-139.52-40.96-40.96-87.04-71.68-139.52-94.72-52.48-23.04-108.8-34.56-168.96-34.56-58.88 0-116.48 11.52-170.24 34.56-52.48 23.04-99.84 53.76-139.52 94.72-16.64 15.36-30.72 32-43.52 48.64 0 0-1.28 1.28-1.28 2.56C93.44 247.04 76.8 276.48 62.72 307.2c-23.04 53.76-34.56 111.36-34.56 170.24s11.52 116.48 34.56 170.24c23.04 52.48 53.76 99.84 94.72 139.52 40.96 39.68 87.04 71.68 139.52 94.72 66.56 28.16 139.52 39.68 211.2 32 12.8-1.28 21.76-11.52 21.76-23.04 0-6.4-2.56-12.8-7.68-17.92-6.4-3.84-12.8-6.4-19.2-6.4z m293.12-604.16c37.12 56.32 60.16 122.88 64 193.28H707.84c-1.28-53.76-8.96-104.96-19.2-153.6 39.68-10.24 76.8-23.04 107.52-39.68z m-51.2-61.44c7.68 7.68 15.36 16.64 23.04 24.32-26.88 12.8-56.32 23.04-90.88 32-10.24-29.44-21.76-57.6-34.56-83.2-12.8-25.6-28.16-47.36-43.52-65.28 53.76 19.2 103.68 49.92 145.92 92.16zM490.24 89.6c16.64 3.84 32 11.52 47.36 24.32 23.04 19.2 44.8 46.08 62.72 81.92 11.52 23.04 21.76 46.08 29.44 71.68-46.08 8.96-93.44 14.08-140.8 15.36V89.6z m0 238.08c53.76-1.28 104.96-6.4 153.6-16.64 10.24 44.8 16.64 93.44 17.92 143.36H490.24v-126.72z m-300.8-126.72c42.24-42.24 92.16-72.96 147.2-92.16-16.64 17.92-30.72 40.96-43.52 65.28-12.8 25.6-24.32 53.76-34.56 83.2-34.56-8.96-64-19.2-90.88-32 6.4-8.96 12.8-16.64 21.76-24.32z m-49.92 61.44c30.72 16.64 66.56 29.44 107.52 39.68-11.52 48.64-17.92 99.84-19.2 153.6H75.52c3.84-69.12 25.6-135.68 64-193.28zM136.96 691.2c-35.84-56.32-57.6-121.6-61.44-189.44h151.04c1.28 49.92 7.68 99.84 17.92 148.48-39.68 11.52-76.8 25.6-107.52 40.96z m52.48 64c-8.96-8.96-16.64-17.92-24.32-28.16 29.44-14.08 60.16-25.6 92.16-33.28 10.24 32 21.76 61.44 35.84 88.32 12.8 25.6 28.16 47.36 43.52 65.28-55.04-17.92-104.96-48.64-147.2-92.16z m254.72 112.64c-16.64-3.84-32-11.52-47.36-24.32-23.04-19.2-44.8-46.08-62.72-81.92-11.52-23.04-23.04-49.92-30.72-76.8 43.52-8.96 92.16-14.08 142.08-15.36l-1.28 198.4z m0-244.48c-53.76 1.28-104.96 6.4-154.88 16.64-10.24-42.24-16.64-89.6-16.64-138.24h171.52v121.6z m0-167.68H272.64c1.28-49.92 7.68-98.56 17.92-143.36 48.64 10.24 99.84 15.36 153.6 16.64v126.72z m0-174.08c-47.36-1.28-94.72-6.4-140.8-15.36 8.96-25.6 17.92-49.92 29.44-71.68 17.92-35.84 39.68-62.72 62.72-81.92 15.36-12.8 30.72-20.48 47.36-24.32V281.6z m0 0" p-id="3211" fill="#ffffff"></path></svg>